<svg width="296" height="208" viewBox="0 0 296 208" fill="none" xmlns="http://www.w3.org/2000/svg">
<g filter="url(#filter0_d_71_118)">
<path fill-rule="evenodd" clip-rule="evenodd" d="M33.2971 61.7139C34.082 59.5556 35.7694 54.8857 36.2403 53.473C36.341 53.1711 36.4244 52.8949 36.5009 52.6417C36.872 51.4137 37.0806 50.7235 38.3006 50.2355C39.7722 49.6468 42.1268 49.9411 44.1195 50.6964C44.3435 50.7813 44.5407 50.9696 44.7757 51.1184C46.6227 52.2873 48.7632 54.0994 47.7188 56.7104C46.777 59.065 46.1491 60.046 45.9529 60.2423L52.4279 59.3593C52.8203 57.9859 53.9584 54.356 55.3711 50.8241C57.137 46.4092 58.02 45.5263 60.9632 46.4092C63.5173 47.1755 64.2983 47.7201 65.0372 48.2354C65.1497 48.3139 65.2613 48.3917 65.378 48.4695C66.261 49.0581 68.0269 50.2355 66.8496 52.8843C65.9078 55.0033 65.5742 56.5142 65.378 56.7104L70.6757 55.8275C71.853 55.7294 73.913 56.0499 73.9132 58.182C73.9133 59.065 73.9788 59.6536 73.9788 60.3796C73.9788 61.7986 74.2485 62.971 72.4417 63.7741C71.8404 64.0413 71.5587 64.0684 70.9701 64.3627C69.6579 65.0567 68.805 65.3522 62.4348 66.7173C62.1404 67.7965 61.3163 70.1902 60.3745 71.1321C62.5329 70.9359 67.968 70.2491 72.4416 69.0718C73.8151 68.7775 76.5621 68.7775 76.5621 71.1321C76.5621 71.4056 76.5646 71.6741 76.5671 71.9366C76.5914 74.4977 76.6102 76.4845 74.2075 77.0184C71.6568 77.9014 64.7893 79.9028 57.7257 80.8446C56.2541 84.3764 53.1343 91.7344 52.4279 92.9117C51.5449 94.3833 50.662 95.8549 46.8358 93.5003C43.0097 91.1458 42.7154 90.2628 43.8926 87.0253C44.8345 84.4353 45.0699 83.3954 45.0699 83.1992C43.0097 83.3954 38.7126 83.7878 38.0063 83.7878C36.6328 87.0253 33.7681 93.9124 33.2971 95.5606C32.7085 97.6208 31.5312 98.7981 28.8824 98.2094C26.2335 97.6208 22.113 95.5606 24.1732 90.8515C25.8214 87.0842 26.4298 85.5537 26.5279 85.2594H20.3472C19.1699 85.2594 17.7572 83.6701 17.9927 80.8446C18.2281 78.0191 21.4262 77.509 22.9959 77.6071H26.822C27.6069 77.6071 29.2943 77.0185 29.7652 74.6639C30.2361 72.3093 30.3539 71.3283 30.3539 71.1321L19.1697 72.015C17.6 71.9169 14.5783 70.8966 15.0493 67.6002C15.5202 64.3039 18.8756 64.0684 20.3472 63.7741L32.4143 62.3025C32.6373 62.3025 33.1261 62.1849 33.2971 61.7139ZM46.2473 74.0753L40.9495 74.3696L43.0098 69.6605L49.4245 69.3689C49.3493 69.543 49.1928 70.0915 48.8961 71.4264C48.4252 73.5455 46.934 74.0753 46.2473 74.0753Z" fill="#309622"/>
<path d="M100.696 51.4127L86.8633 38.1683C86.0785 37.4816 84.0379 36.579 82.1542 38.4626L74.7962 45.8206C74.2076 46.8017 73.619 49.2936 75.9735 51.4127C78.3281 53.5318 88.3349 62.6949 93.044 67.0116L82.7429 82.3162C81.7618 83.5916 80.7415 86.6132 84.5088 88.4969L89.5122 91.1458C90.6895 91.6363 93.4561 91.911 95.1043 89.0855C96.7525 86.2601 100.5 78.8824 102.168 75.5468L111.586 85.2594C112.469 86.2404 115.177 87.6139 118.944 85.2594C122.711 82.9048 126.4 80.5503 127.774 79.6673C128.559 78.9086 129.422 76.8457 126.596 74.6639C123.771 72.482 114.039 63.7479 109.526 59.6536L121.004 40.8172C121.789 39.8361 122.358 37.4031 118.355 35.5194C114.353 33.6358 114.333 33.7535 114.824 34.0478C113.352 33.1649 110.056 32.1053 108.643 34.9308C107.23 37.7563 102.757 47.096 100.696 51.4127Z" fill="#309622"/>
<path d="M181.928 27.5727C182.321 26.1992 182.223 23.4522 178.691 23.4522C175.159 23.4522 171.922 23.8447 170.744 24.0409C169.861 24.0409 168.213 24.9827 168.684 28.75C169.273 33.4591 169.861 40.5229 173.099 47.2922C176.336 54.0614 181.046 55.533 186.638 52.8842C191.111 50.7651 194.977 47.2921 196.35 45.8205L195.173 61.7137C195.075 63.1853 195.644 66.1285 198.705 66.1285C202.531 66.1285 205.768 65.5399 206.946 65.2456C208.123 64.9513 212.538 65.8342 211.066 57.299C209.594 48.7637 206.651 33.7534 206.357 23.4522C205.474 21.8825 203.061 18.802 200.471 19.0375C197.881 19.2729 197.625 19.3318 197.822 19.3318C196.546 19.3318 194.054 20.2736 194.29 24.0409C194.584 28.75 195.467 39.6398 189.286 39.3455C183.106 39.0512 181.634 35.5193 181.928 27.5727Z" fill="#309622"/>
<path fill-rule="evenodd" clip-rule="evenodd" d="M142.49 28.7501C135.818 30.2217 122.888 36.9321 124.536 52.0013C126.596 70.8377 140.135 73.7809 147.199 73.4866C154.262 73.1923 172.216 66.4229 168.684 47.2922C165.152 28.1614 148.082 27.5728 142.49 28.7501ZM139.252 53.7671C137.604 46.9389 142.882 43.8584 145.727 43.1716C147.886 42.583 152.791 43.1716 155.145 50.2353C157.5 57.299 151.614 60.4384 148.376 61.1251C146.022 61.5175 140.9 60.5953 139.252 53.7671Z" fill="#309622"/>
<path d="M249.916 63.4797C255.214 49.941 266.104 22.3927 267.281 20.5091C268.753 18.1545 269.341 15.2113 265.515 13.7397C262.454 12.5625 258.746 11.6795 257.274 11.3852C255.803 10.7965 252.565 10.4434 251.388 13.7397C249.942 17.787 244.238 29.501 242.92 34.3785C242.505 36.0342 241.911 38.4037 242.853 34.6364C242.873 34.5527 242.896 34.4667 242.92 34.3785L228.137 19.3318C226.273 17.664 221.603 15.0936 217.835 18.1545C214.068 21.2154 211.753 23.3541 211.066 24.0409C209.594 24.9238 208.005 27.5727 213.421 31.1045C218.836 34.6364 231.963 42.9754 237.849 46.7035L228.725 64.0683C227.254 65.8342 225.723 69.6604 231.374 70.8376C238.438 72.3092 245.501 77.0184 249.916 63.4797Z" fill="#309622"/>
<path d="M43.0101 105.273C46.542 104.802 65.8689 102.526 75.0909 101.447C83.3318 99.563 86.5694 103.213 87.1581 105.273L88.6297 109.099C92.6521 121.657 101.58 149.48 105.112 160.31C108.643 171.141 105.014 174.634 102.757 175.026C102.07 175.419 98.2834 176.616 88.6297 178.264C78.9761 179.912 76.7589 172.868 76.857 169.14L67.7331 117.34C63.7303 119.694 57.2357 121.068 54.4887 121.46C55.1754 125.483 57.373 138.295 60.6694 157.367C64.7899 181.207 49.4853 185.622 43.0101 188.271C37.83 190.39 35.3579 187.388 34.7693 185.622C34.7693 184.935 34.3573 182.502 32.7091 178.264C31.0609 174.026 33.3958 172.378 34.7693 172.083L37.4182 170.612C43.3046 168.728 42.6178 160.409 41.5386 156.484C38.5954 147.753 32.2969 128.995 30.6487 123.815C28.5885 117.34 27.1169 112.336 30.0601 109.099C33.0033 105.861 38.5954 105.861 43.0101 105.273Z" fill="#E96D00"/>
<path d="M133.366 92.3227C132.581 91.3417 130.129 89.9682 126.597 92.3227C123.065 94.6773 106.878 103.899 99.2252 108.216C97.8517 108.805 95.5168 111.277 97.165 116.457C98.8132 121.637 109.232 152.168 114.236 166.785C114.334 168.748 116.296 172.377 123.359 171.2C130.423 170.023 145.531 166.589 152.203 165.02C154.067 164.627 157.442 162.547 156.029 157.367C154.616 152.187 153.478 148.341 153.086 147.066C152.693 145.594 150.437 143.181 144.55 145.3C138.664 147.419 132.091 149.715 129.54 150.598C128.461 148.44 126.185 143.711 125.714 142.063L125.125 141.18L138.075 137.648C139.743 137.059 142.784 134.881 141.607 130.878C140.608 127.482 140.386 126.812 140.402 126.927C140.035 125.436 138.239 122.965 133.661 124.109C128.951 125.286 123.458 127.347 121.299 128.23L120.416 128.818C119.926 126.267 118.65 120.872 117.473 119.694C122.673 117.83 133.719 113.749 136.309 112.336C139.547 110.57 140.724 108.51 138.075 102.624C135.956 97.9147 134.053 93.7943 133.366 92.3227Z" fill="#E96D00"/>
<path d="M149.554 83.7874L198.999 77.3124C207.829 76.1561 208.418 82.0215 209.006 89.3795C209.477 95.2658 206.063 97.1299 204.297 97.3261L186.344 101.741L197.234 145.594C197.822 147.262 198.764 151.422 197.822 154.718C196.645 158.839 183.695 161.193 176.631 161.782C170.98 162.253 169.371 158.446 169.273 156.484L166.919 107.039C166.036 107.431 162.445 108.569 155.146 109.982C147.847 111.395 145.63 107.431 145.433 105.273C144.747 103.409 143.255 98.0324 142.784 91.4397C142.314 84.8469 147.101 83.5912 149.554 83.7874Z" fill="#E96D00"/>
<path fill-rule="evenodd" clip-rule="evenodd" d="M248.151 80.2555C236.084 79.5688 211.361 85.0823 209.006 112.631C206.063 147.066 236.967 152.658 246.091 150.598C255.214 148.538 285.824 139.708 280.526 109.982C276.288 86.2008 257.177 80.2555 248.151 80.2555ZM231.669 120.283C229.55 109.923 238.046 104.782 242.559 103.507C252.271 101.741 256.686 105.273 258.746 117.634C260.807 129.995 249.328 132.056 244.913 132.35L244.74 132.362C240.338 132.657 234.283 133.064 231.669 120.283Z" fill="#E96D00"/>
</g>
<defs>
<filter id="filter0_d_71_118" x="0.5" y="0.5" width="295.137" height="207" filterUnits="userSpaceOnUse" color-interpolation-filters="sRGB">
<feFlood flood-opacity="0" result="BackgroundImageFix"/>
<feColorMatrix in="SourceAlpha" type="matrix" values="0 0 0 0 0 0 0 0 0 0 0 0 0 0 0 0 0 0 127 0" result="hardAlpha"/>
<feOffset dy="4"/>
<feGaussianBlur stdDeviation="7.25"/>
<feComposite in2="hardAlpha" operator="out"/>
<feColorMatrix type="matrix" values="0 0 0 0 0 0 0 0 0 0 0 0 0 0 0 0 0 0 0.89 0"/>
<feBlend mode="normal" in2="BackgroundImageFix" result="effect1_dropShadow_71_118"/>
<feBlend mode="normal" in="SourceGraphic" in2="effect1_dropShadow_71_118" result="shape"/>
</filter>
</defs>
</svg>
