<svg width="267" height="178" viewBox="0 0 267 178" fill="none" xmlns="http://www.w3.org/2000/svg">
<path fill-rule="evenodd" clip-rule="evenodd" d="M18.2971 50.7139C19.082 48.5556 20.7694 43.8857 21.2403 42.473C21.341 42.1711 21.4244 41.8949 21.5009 41.6417C21.872 40.4137 22.0806 39.7235 23.3006 39.2355C24.7722 38.6468 27.1268 38.9411 29.1195 39.6964C29.3435 39.7813 29.5407 39.9696 29.7757 40.1184C31.6227 41.2873 33.7632 43.0994 32.7188 45.7104C31.777 48.065 31.1491 49.046 30.9529 49.2423L37.4279 48.3593C37.8203 46.9859 38.9584 43.356 40.3711 39.8241C42.137 35.4092 43.02 34.5263 45.9632 35.4092C48.5173 36.1755 49.2983 36.7201 50.0372 37.2354C50.1497 37.3139 50.2613 37.3917 50.378 37.4695C51.261 38.0581 53.0269 39.2355 51.8496 41.8843C50.9078 44.0033 50.5742 45.5142 50.378 45.7104L55.6757 44.8275C56.853 44.7294 58.913 45.0499 58.9132 47.182C58.9133 48.065 58.9788 48.6536 58.9788 49.3796C58.9788 50.7986 59.2485 51.971 57.4417 52.7741C56.8404 53.0413 56.5587 53.0684 55.9701 53.3627C54.6579 54.0567 53.805 54.3522 47.4348 55.7173C47.1404 56.7965 46.3163 59.1902 45.3745 60.1321C47.5329 59.9359 52.968 59.2491 57.4416 58.0718C58.8151 57.7775 61.5621 57.7775 61.5621 60.1321C61.5621 60.4056 61.5646 60.6741 61.5671 60.9366C61.5914 63.4977 61.6102 65.4845 59.2075 66.0184C56.6568 66.9014 49.7893 68.9028 42.7257 69.8446C41.2541 73.3764 38.1343 80.7344 37.4279 81.9117C36.5449 83.3833 35.662 84.8549 31.8358 82.5003C28.0097 80.1458 27.7154 79.2628 28.8926 76.0253C29.8345 73.4353 30.0699 72.3954 30.0699 72.1992C28.0097 72.3954 23.7126 72.7878 23.0063 72.7878C21.6328 76.0253 18.7681 82.9124 18.2971 84.5606C17.7085 86.6208 16.5312 87.7981 13.8824 87.2094C11.2335 86.6208 7.11302 84.5606 9.17325 79.8515C10.8214 76.0842 11.4298 74.5537 11.5279 74.2594H5.34722C4.16991 74.2594 2.75721 72.6701 2.99267 69.8446C3.22812 67.0191 6.42625 66.509 7.99587 66.6071H11.822C12.6069 66.6071 14.2943 66.0185 14.7652 63.6639C15.2361 61.3093 15.3539 60.3283 15.3539 60.1321L4.16972 61.015C2.60002 60.9169 -0.421655 59.8966 0.0492551 56.6002C0.520165 53.3039 3.87559 53.0684 5.34722 52.7741L17.4143 51.3025C17.6373 51.3025 18.1261 51.1849 18.2971 50.7139ZM31.2473 63.0753L25.9495 63.3696L28.0098 58.6605L34.4245 58.3689C34.3493 58.543 34.1928 59.0915 33.8961 60.4264C33.4252 62.5455 31.934 63.0753 31.2473 63.0753Z" fill="#309622"/>
<path d="M85.6963 40.4127L71.8633 27.1683C71.0785 26.4816 69.0379 25.579 67.1542 27.4626L59.7962 34.8206C59.2076 35.8017 58.619 38.2936 60.9735 40.4127C63.3281 42.5318 73.3349 51.6949 78.044 56.0116L67.7429 71.3162C66.7618 72.5916 65.7415 75.6132 69.5088 77.4969L74.5122 80.1458C75.6895 80.6363 78.4561 80.911 80.1043 78.0855C81.7525 75.2601 85.5001 67.8824 87.1679 64.5468L96.5862 74.2594C97.4691 75.2404 100.177 76.6139 103.944 74.2594C107.711 71.9048 111.4 69.5503 112.774 68.6673C113.559 67.9086 114.422 65.8457 111.596 63.6639C108.771 61.482 99.0388 52.7479 94.5259 48.6536L106.004 29.8172C106.789 28.8361 107.358 26.4031 103.355 24.5194C99.3528 22.6358 99.3331 22.7535 99.8237 23.0478C98.3521 22.1649 95.0557 21.1053 93.643 23.9308C92.2302 26.7563 87.7566 36.096 85.6963 40.4127Z" fill="#309622"/>
<path d="M166.928 16.5727C167.321 15.1992 167.223 12.4522 163.691 12.4522C160.159 12.4522 156.922 12.8447 155.744 13.0409C154.861 13.0409 153.213 13.9827 153.684 17.75C154.273 22.4591 154.861 29.5229 158.099 36.2922C161.336 43.0614 166.046 44.533 171.638 41.8842C176.111 39.7651 179.977 36.2921 181.35 34.8205L180.173 50.7137C180.075 52.1853 180.644 55.1285 183.705 55.1285C187.531 55.1285 190.768 54.5399 191.946 54.2456C193.123 53.9513 197.538 54.8342 196.066 46.299C194.594 37.7637 191.651 22.7534 191.357 12.4522C190.474 10.8825 188.061 7.802 185.471 8.03745C182.881 8.27291 182.625 8.33179 182.822 8.3318C181.546 8.33178 179.054 9.27357 179.29 13.0409C179.584 17.75 180.467 28.6398 174.286 28.3455C168.106 28.0512 166.634 24.5193 166.928 16.5727Z" fill="#309622"/>
<path fill-rule="evenodd" clip-rule="evenodd" d="M127.49 17.7501C120.818 19.2217 107.888 25.9321 109.536 41.0013C111.596 59.8377 125.135 62.7809 132.199 62.4866C139.262 62.1923 157.216 55.4229 153.684 36.2922C150.152 17.1614 133.082 16.5728 127.49 17.7501ZM124.252 42.7671C122.604 35.9389 127.882 32.8584 130.727 32.1716C132.886 31.583 137.791 32.1716 140.145 39.2353C142.5 46.299 136.614 49.4384 133.376 50.1251C131.022 50.5175 125.9 49.5953 124.252 42.7671Z" fill="#309622"/>
<path d="M234.916 52.4797C240.214 38.941 251.104 11.3927 252.281 9.50907C253.753 7.15452 254.341 4.21133 250.515 2.73973C247.454 1.56245 243.746 0.679497 242.274 0.385177C240.803 -0.203461 237.565 -0.556644 236.388 2.73973C234.942 6.787 229.238 18.501 227.92 23.3785C227.505 25.0342 226.911 27.4037 227.853 23.6364C227.873 23.5527 227.896 23.4667 227.92 23.3785L213.137 8.3318C211.273 6.66398 206.603 4.09357 202.835 7.15449C199.068 10.2154 196.753 12.3541 196.066 13.0409C194.594 13.9238 193.005 16.5727 198.421 20.1045C203.836 23.6364 216.963 31.9754 222.849 35.7035L213.725 53.0683C212.254 54.8342 210.723 58.6604 216.374 59.8376C223.438 61.3092 230.501 66.0184 234.916 52.4797Z" fill="#309622"/>
<path d="M28.0101 94.2728C31.542 93.8019 50.8689 91.5258 60.0909 90.4466C68.3318 88.563 71.5694 92.2125 72.1581 94.2728L73.6297 98.0989C77.6521 110.657 86.5798 138.48 90.1116 149.31C93.6434 160.141 90.0135 163.634 87.7571 164.026C87.0703 164.419 83.2834 165.616 73.6297 167.264C63.9761 168.912 61.7589 161.868 61.857 158.14L52.7331 106.34C48.7303 108.694 42.2357 110.068 39.4887 110.46C40.1754 114.483 42.373 127.295 45.6694 146.367C49.7899 170.207 34.4853 174.622 28.0101 177.271C22.83 179.39 20.3579 176.388 19.7693 174.622C19.7693 173.935 19.3573 171.502 17.7091 167.264C16.0609 163.026 18.3958 161.378 19.7693 161.083L22.4182 159.612C28.3046 157.728 27.6178 149.409 26.5386 145.484C23.5954 136.753 17.2969 117.995 15.6487 112.815C13.5885 106.34 12.1169 101.336 15.0601 98.0989C18.0033 94.8614 23.5954 94.8614 28.0101 94.2728Z" fill="#E96D00"/>
<path d="M118.366 81.3227C117.581 80.3417 115.129 78.9682 111.597 81.3227C108.065 83.6773 91.8775 92.8992 84.2252 97.2159C82.8517 97.8045 80.5168 100.277 82.165 105.457C83.8132 110.637 94.2321 141.168 99.2355 155.785C99.3336 157.748 101.296 161.377 108.359 160.2C115.423 159.023 130.531 155.589 137.203 154.02C139.067 153.627 142.442 151.547 141.029 146.367C139.616 141.187 138.478 137.341 138.086 136.066C137.693 134.594 135.437 132.181 129.55 134.3C123.664 136.419 117.091 138.715 114.54 139.598C113.461 137.44 111.185 132.711 110.714 131.063L110.125 130.18L123.075 126.648C124.743 126.059 127.784 123.881 126.607 119.878C125.608 116.482 125.386 115.812 125.402 115.927C125.035 114.436 123.239 111.965 118.661 113.109C113.951 114.286 108.458 116.347 106.299 117.23L105.416 117.818C104.926 115.267 103.65 109.872 102.473 108.694C107.673 106.83 118.719 102.749 121.309 101.336C124.547 99.5704 125.724 97.5102 123.075 91.6238C120.956 86.9147 119.053 82.7943 118.366 81.3227Z" fill="#E96D00"/>
<path d="M134.554 72.7874L183.999 66.3124C192.829 65.1561 193.418 71.0215 194.006 78.3795C194.477 84.2658 191.063 86.1299 189.297 86.3261L171.344 90.7409L182.234 134.594C182.822 136.262 183.764 140.422 182.822 143.718C181.645 147.839 168.695 150.193 161.631 150.782C155.98 151.253 154.371 147.446 154.273 145.484L151.919 96.0386C151.036 96.431 147.445 97.5691 140.146 98.9818C132.847 100.395 130.63 96.4311 130.433 94.2728C129.747 92.4087 128.255 87.0324 127.784 80.4397C127.314 73.8469 132.101 72.5912 134.554 72.7874Z" fill="#E96D00"/>
<path fill-rule="evenodd" clip-rule="evenodd" d="M233.151 69.2555C221.084 68.5688 196.361 74.0823 194.006 101.631C191.063 136.066 221.967 141.658 231.091 139.598C240.214 137.538 270.824 128.708 265.526 98.9818C261.288 75.2008 242.177 69.2555 233.151 69.2555ZM216.669 109.283C214.55 98.9229 223.046 93.7821 227.559 92.5067C237.271 90.7407 241.686 94.2728 243.746 106.634C245.807 118.995 234.328 121.056 229.913 121.35L229.74 121.362C225.338 121.657 219.283 122.064 216.669 109.283Z" fill="#E96D00"/>
</svg>
