<svg width="55" height="37" viewBox="0 0 55 37" fill="none" xmlns="http://www.w3.org/2000/svg">
<path fill-rule="evenodd" clip-rule="evenodd" d="M3.71795 10.29C3.87743 9.85208 4.22032 8.90455 4.31601 8.6179C4.33646 8.55664 4.35341 8.50062 4.36896 8.44923C4.44436 8.20008 4.48674 8.06002 4.73464 7.961C5.03367 7.84156 5.51213 7.90127 5.91704 8.05452C5.96256 8.07174 6.00262 8.10996 6.05037 8.14014C6.42569 8.37732 6.86063 8.74501 6.64841 9.27479C6.45703 9.75253 6.32945 9.9516 6.28958 9.99141L7.60529 9.81225C7.68503 9.53358 7.91628 8.79707 8.20335 8.08044C8.56218 7.18465 8.74159 7.00549 9.33965 7.18465C9.85865 7.34012 10.0173 7.45062 10.1675 7.55518C10.1903 7.57111 10.213 7.58689 10.2367 7.60268C10.4162 7.72211 10.775 7.961 10.5358 8.49845C10.3444 8.92841 10.2766 9.23498 10.2367 9.27479L11.3132 9.09563C11.5524 9.07573 11.971 9.14076 11.9711 9.57338C11.9711 9.75254 11.9844 9.87197 11.9844 10.0193C11.9844 10.3072 12.0392 10.5451 11.6721 10.708C11.5499 10.7623 11.4927 10.7677 11.373 10.8275C11.1064 10.9683 10.9331 11.0282 9.63867 11.3052C9.57887 11.5242 9.41141 12.0099 9.22004 12.201C9.65861 12.1612 10.763 12.0218 11.6721 11.783C11.9511 11.7232 12.5093 11.7232 12.5093 12.201C12.5093 12.2565 12.5098 12.311 12.5103 12.3642C12.5153 12.8839 12.5191 13.287 12.0309 13.3954C11.5126 13.5745 10.1171 13.9806 8.68179 14.1717C8.38276 14.8883 7.74883 16.3813 7.60529 16.6201C7.42588 16.9187 7.24646 17.2173 6.46899 16.7396C5.69153 16.2618 5.63172 16.0827 5.87094 15.4258C6.06232 14.9003 6.11016 14.6892 6.11016 14.6494C5.69153 14.6892 4.81837 14.7689 4.67484 14.7689C4.39575 15.4258 3.81364 16.8232 3.71795 17.1576C3.59834 17.5756 3.35912 17.8145 2.82087 17.6951C2.28263 17.5756 1.44535 17.1576 1.86399 16.2021C2.1989 15.4377 2.32251 15.1272 2.34246 15.0675H1.08655C0.847319 15.0675 0.560262 14.745 0.608106 14.1717C0.65595 13.5984 1.3058 13.4949 1.62475 13.5148H2.40222C2.5617 13.5148 2.90458 13.3954 3.00027 12.9176C3.09596 12.4399 3.11988 12.2408 3.11988 12.201L0.847282 12.3801C0.528321 12.3602 -0.0856797 12.1532 0.0100086 11.4844C0.105697 10.8155 0.787514 10.7677 1.08655 10.708L3.53855 10.4094C3.58387 10.4094 3.68319 10.3856 3.71795 10.29ZM6.3494 12.7982L5.27291 12.8579L5.69154 11.9024L6.99501 11.8432C6.97972 11.8786 6.94793 11.9899 6.88765 12.2607C6.79196 12.6907 6.48895 12.7982 6.3494 12.7982Z" fill="#309622"/>
<path d="M17.4134 8.19986L14.6025 5.51254C14.443 5.37319 14.0284 5.19006 13.6456 5.57225L12.1505 7.06521C12.0309 7.26427 11.9113 7.76989 12.3897 8.19986C12.8682 8.62983 14.9016 10.4891 15.8584 11.3649L13.7653 14.4703C13.5659 14.7291 13.3586 15.3422 14.1241 15.7244L15.1408 16.2618C15.38 16.3614 15.9422 16.4171 16.2771 15.8438C16.612 15.2705 17.3735 13.7736 17.7124 13.0968L19.6262 15.0675C19.8056 15.2665 20.3558 15.5452 21.1213 15.0675C21.8868 14.5897 22.6364 14.112 22.9155 13.9328C23.0749 13.7789 23.2504 13.3603 22.6762 12.9176C22.1021 12.4749 20.1245 10.7027 19.2075 9.87197L21.5399 6.05C21.6994 5.85093 21.815 5.35726 21.0017 4.97507C20.1883 4.59287 20.1843 4.61676 20.284 4.67647C19.985 4.49732 19.3152 4.28234 19.0281 4.85564C18.741 5.42893 17.832 7.32399 17.4134 8.19986Z" fill="#309622"/>
<path d="M33.9196 3.36266C33.9994 3.08397 33.9794 2.5266 33.2618 2.5266C32.5441 2.5266 31.8862 2.60622 31.647 2.64604C31.4676 2.64604 31.1327 2.83713 31.2284 3.60153C31.348 4.55702 31.4676 5.99029 32.1255 7.3638C32.7833 8.7373 33.7402 9.03589 34.8765 8.49843C35.7855 8.06846 36.571 7.36378 36.8501 7.06519L36.6109 10.29C36.5909 10.5886 36.7065 11.1858 37.3285 11.1858C38.106 11.1858 38.7638 11.0663 39.0031 11.0066C39.2423 10.9469 40.1394 11.126 39.8403 9.3942C39.5413 7.66237 38.9433 4.61674 38.8835 2.5266C38.704 2.2081 38.2136 1.58305 37.6873 1.63082C37.1611 1.6786 37.1092 1.69055 37.1491 1.69055C36.8899 1.69054 36.3836 1.88164 36.4314 2.64604C36.4912 3.60153 36.6707 5.81111 35.4147 5.75139C34.1588 5.69168 33.8598 4.97504 33.9196 3.36266Z" fill="#309622"/>
<path fill-rule="evenodd" clip-rule="evenodd" d="M25.9057 3.60154C24.5501 3.90013 21.9227 5.26171 22.2576 8.31929C22.6762 12.1413 25.4273 12.7384 26.8626 12.6787C28.2979 12.619 31.946 11.2455 31.2284 7.3638C30.5107 3.48211 27.042 3.36267 25.9057 3.60154ZM25.2479 8.67758C24.9129 7.29212 25.9855 6.66707 26.5636 6.52773C27.0021 6.40829 27.9989 6.52773 28.4773 7.96097C28.9558 9.3942 27.7597 10.0312 27.1018 10.1705C26.6234 10.2502 25.5828 10.063 25.2479 8.67758Z" fill="#309622"/>
<path d="M47.7346 10.6483C48.8111 7.90125 51.0239 2.31162 51.2631 1.92942C51.5622 1.45167 51.6818 0.854492 50.9043 0.5559C50.2823 0.317027 49.5288 0.137872 49.2298 0.0781537C48.9307 -0.0412829 48.2729 -0.112945 48.0337 0.5559C47.7399 1.3771 46.5807 3.75391 46.313 4.74357C46.2287 5.07951 46.1079 5.56029 46.2993 4.79589C46.3036 4.77892 46.3081 4.76147 46.313 4.74357L43.309 1.69055C42.9303 1.35214 41.9814 0.830598 41.2159 1.45167C40.4504 2.07274 39.9799 2.50669 39.8403 2.64604C39.5413 2.82519 39.2184 3.36265 40.3188 4.07927C41.4192 4.79589 44.0865 6.48791 45.2826 7.24434L43.4287 10.7677C43.1296 11.126 42.8186 11.9024 43.9669 12.1412C45.4022 12.4398 46.8376 13.3953 47.7346 10.6483Z" fill="#309622"/>
<path d="M5.69289 19.1282C6.41056 19.0326 10.3378 18.5708 12.2117 18.3518C13.8862 17.9696 14.5441 18.7102 14.6637 19.1282L14.9627 19.9045C15.7801 22.4525 17.5942 28.0979 18.3118 30.2955C19.0295 32.4931 18.2919 33.2018 17.8334 33.2814C17.6938 33.361 16.9243 33.6039 14.9627 33.9383C13.0011 34.2727 12.5506 32.8435 12.5705 32.0871L10.7166 21.5766C9.9032 22.0544 8.5835 22.3331 8.02532 22.4127C8.16486 23.2288 8.61141 25.8286 9.28123 29.6983C10.1185 34.5355 7.00863 35.4313 5.69289 35.9687C4.6403 36.3987 4.13796 35.7896 4.01836 35.4313C4.01836 35.2919 3.93464 34.7983 3.59973 33.9383C3.26482 33.0784 3.73927 32.744 4.01836 32.6842L4.55661 32.3856C5.75273 32.0035 5.61318 30.3154 5.39389 29.5192C4.79583 27.7475 3.51598 23.9415 3.18107 22.8904C2.76244 21.5766 2.46341 20.5614 3.06146 19.9045C3.65951 19.2476 4.79581 19.2476 5.69289 19.1282Z" fill="#E96D00"/>
<path d="M24.0531 16.5006C23.8936 16.3015 23.3953 16.0228 22.6776 16.5006C21.9599 16.9783 18.6706 18.8495 17.1157 19.7253C16.8366 19.8448 16.3622 20.3464 16.6971 21.3975C17.032 22.4485 19.1491 28.6433 20.1658 31.6093C20.1857 32.0074 20.5844 32.7439 22.0197 32.5051C23.4551 32.2662 26.5251 31.5695 27.8807 31.251C28.2594 31.1714 28.9452 30.7494 28.6581 29.6983C28.3711 28.6473 28.1398 27.8669 28.0601 27.6082C27.9803 27.3096 27.5218 26.8199 26.3257 27.2499C25.1296 27.6798 23.794 28.1456 23.2757 28.3248C23.0564 27.8869 22.5939 26.9274 22.4982 26.593L22.3786 26.4138L25.01 25.6972C25.3489 25.5777 25.9669 25.1358 25.7277 24.3237C25.5247 23.6346 25.4796 23.4986 25.4828 23.5219C25.4082 23.2194 25.0432 22.7179 24.1129 22.9501C23.156 23.189 22.0397 23.607 21.6011 23.7862L21.4217 23.9056C21.322 23.3881 21.0629 22.2932 20.8236 22.0544C21.8802 21.6761 24.1249 20.8481 24.6512 20.5614C25.309 20.2031 25.5483 19.7851 25.01 18.5907C24.5794 17.6352 24.1927 16.7992 24.0531 16.5006Z" fill="#E96D00"/>
<path d="M27.3424 14.7687L37.3897 13.4549C39.1838 13.2203 39.3035 14.4104 39.4231 15.9034C39.5188 17.0977 38.825 17.476 38.4662 17.5158L34.8181 18.4115L37.0309 27.3096C37.1505 27.648 37.3418 28.492 37.1505 29.1608C36.9112 29.9969 34.2798 30.4746 32.8445 30.5941C31.6962 30.6896 31.3693 29.9173 31.3494 29.5192L30.8709 19.4865C30.6915 19.5661 29.9619 19.797 28.4787 20.0837C26.9955 20.3703 26.545 19.5661 26.5051 19.1282C26.3656 18.75 26.0626 17.6591 25.9669 16.3214C25.8712 14.9837 26.844 14.7289 27.3424 14.7687Z" fill="#E96D00"/>
<path fill-rule="evenodd" clip-rule="evenodd" d="M47.3772 14.0521C44.9251 13.9128 39.9015 15.0315 39.4231 20.6211C38.825 27.6082 45.1046 28.7428 46.9585 28.3248C48.8125 27.9068 55.0322 26.1152 53.9557 20.0837C53.0945 15.2584 49.2112 14.0521 47.3772 14.0521ZM44.0281 22.1738C43.5975 20.0717 45.3239 19.0286 46.2409 18.7698C48.2144 18.4115 49.1115 19.1282 49.5302 21.6363C49.9488 24.1445 47.6164 24.5625 46.7193 24.6222L46.684 24.6246C45.7896 24.6846 44.5593 24.7671 44.0281 22.1738Z" fill="#E96D00"/>
</svg>
