<svg width="18" height="18" viewBox="0 0 18 18" fill="none" xmlns="http://www.w3.org/2000/svg">
<path d="M2.33493 1.58902C2.39789 1.52615 2.42937 1.49471 2.45711 1.46926C3.13903 0.843578 4.1872 0.843578 4.86912 1.46926C4.89685 1.49471 4.92833 1.52615 4.9913 1.58902L6.29087 2.8867C7.00567 3.60046 7.21011 4.67837 6.80617 5.6037C6.40223 6.52903 6.60667 7.60694 7.32147 8.3207L9.45755 10.4537C10.1724 11.1674 11.2518 11.3716 12.1785 10.9682C13.1052 10.5649 14.1847 10.769 14.8995 11.4828L16.199 12.7805C16.262 12.8433 16.2935 12.8748 16.319 12.9025C16.9456 13.5834 16.9456 14.63 16.319 15.311C16.2935 15.3387 16.262 15.3701 16.199 15.433L15.4091 16.2218C14.7658 16.8641 13.8385 17.1337 12.9504 16.9367C6.89942 15.594 2.17371 10.8751 0.829036 4.8329C0.631688 3.94613 0.901729 3.02013 1.54501 2.37779L2.33493 1.58902Z" stroke="white"/>
</svg>
